<svg xmlns="http://www.w3.org/2000/svg" width="1200" height="630" viewBox="0 0 1200 630">
  <rect width="1200" height="630" fill="#0e1014"/>
  <!-- faint grid -->
  <g stroke="#1c2230" stroke-width="1">
    <g>
      <line x1="0" y1="105" x2="1200" y2="105"/>
      <line x1="0" y1="210" x2="1200" y2="210"/>
      <line x1="0" y1="315" x2="1200" y2="315"/>
      <line x1="0" y1="420" x2="1200" y2="420"/>
      <line x1="0" y1="525" x2="1200" y2="525"/>
    </g>
    <g>
      <line x1="150" y1="0" x2="150" y2="630"/>
      <line x1="300" y1="0" x2="300" y2="630"/>
      <line x1="450" y1="0" x2="450" y2="630"/>
      <line x1="600" y1="0" x2="600" y2="630"/>
      <line x1="750" y1="0" x2="750" y2="630"/>
      <line x1="900" y1="0" x2="900" y2="630"/>
      <line x1="1050" y1="0" x2="1050" y2="630"/>
    </g>
  </g>
  <text x="90" y="300" fill="#f5f6f8" font-family="Inter, Arial, sans-serif" font-size="92" font-weight="700" letter-spacing="-3">Raphos</text>
  <text x="92" y="372" fill="#9aa3b2" font-family="Inter, Arial, sans-serif" font-size="38" font-weight="500">Engineering · Machine Learning · Data Science</text>
  <text x="92" y="430" fill="#5b8def" font-family="SFMono-Regular, Consolas, monospace" font-size="26" letter-spacing="2">computational tools for hard problems</text>
  <!-- node-dodo brand mark (right side, clear of the text column) -->
  <g transform="translate(932.5 201.3) scale(10)">
    <path d="m 11.020432,19.067292 c 0.923785,-0.281408 1.848877,-0.563215 2.951918,-1.092504 1.103041,-0.52929 2.386049,-1.306497 3.395019,-2.1058 1.008969,-0.799304 1.744563,-1.621179 2.206318,-2.326331 0.461755,-0.705152 0.649929,-1.294758 0.61276,-1.718736 -0.03717,-0.423978 -0.302323,-0.683046 -0.866695,-1.080883 -0.564372,-0.397837 -1.428263,-0.933841 -1.831657,-1.4875262 -0.403394,-0.5536853 -0.34352,-1.1254251 0.02069,-1.5331086 0.364216,-0.4076836 1.031381,-0.648886 1.561757,-0.6346698 0.530377,0.014216 0.920141,0.2800491 1.312389,0.5475763 0.381234,0.1575452 0.765055,0.3161591 1.082929,0.2331322 C 21.78374,7.785415 22.041334,7.4622666 22.298681,7.1394273 21.165208,6.0544984 20.033976,4.9717141 19.402266,4.1525225 18.770556,3.3333308 18.642255,2.779459 18.305388,2.3767477 17.968521,1.9740364 17.421106,1.7239012 16.697875,1.6740268 c -0.72323,-0.049874 -1.621335,0.1019935 -2.272486,0.5402821 -0.651151,0.4382886 -1.05316,1.1618958 -1.189586,1.8997827 -0.136426,0.7378869 -0.0081,1.4882941 0.150399,2.1137213 0.158525,0.6254272 0.3467,1.1256984 -0.09337,1.4324892 C 12.852757,7.9670929 11.783582,8.0832275 10.911462,8.0346027 10.039341,7.9859779 9.3636237,7.7715759 8.9733962,7.4061587 8.5831688,7.0407414 8.4805282,6.5226035 8.6812297,5.9943035 8.8819312,5.4660035 9.3865813,4.9299983 9.4343484,4.7242602 9.4821156,4.5185222 9.0702188,4.6439965 8.6596477,4.7690669 7.7187557,5.0013405 6.7793501,5.2332471 5.7779164,5.7872505 4.7764827,6.341254 3.715862,7.2167291 3.0826483,8.2227305 2.4494345,9.228732 2.2441531,10.363276 2.2059675,11.47585 c -0.038186,1.112573 0.090115,2.20245 0.4714965,3.189641 0.3813813,0.98719 1.0143326,1.871599 1.7631876,2.527629 0.748855,0.65603 1.6101592,1.083549 2.4740692,1.512361 0,0 0.4362314,2.586278 0.4362314,2.586278 0,0 2.181159,1.112231 2.181159,1.112231 0,0 3.9600688,-0.0483 3.9600688,-0.0483 -0.601524,-0.510981 -1.20051,-1.019806 -1.613237,-1.567634 -0.412726,-0.547828 -0.636119,-1.135612 -0.858511,-1.720763 z" fill="none" stroke="#f5f6f8" stroke-width="0.85" stroke-linejoin="round"/>
    <g fill="#5b8def">
      <circle cx="16.7" cy="1.67" r="1.15"/>
      <circle cx="22.3" cy="7.14" r="1.15"/>
      <circle cx="20.19" cy="11.82" r="1.15"/>
      <circle cx="9.43" cy="4.72" r="1.15"/>
      <circle cx="2.21" cy="11.48" r="1.15"/>
      <circle cx="11.02" cy="19.07" r="1.15"/>
    </g>
  </g>
</svg>
