<svg xmlns="http://www.w3.org/2000/svg" width="1200" height="630" viewBox="0 0 1200 630">
  <rect width="1200" height="630" fill="#0e1014"/>
  <!-- faint grid -->
  <g stroke="#1c2230" stroke-width="1">
    <g>
      <line x1="0" y1="105" x2="1200" y2="105"/>
      <line x1="0" y1="210" x2="1200" y2="210"/>
      <line x1="0" y1="315" x2="1200" y2="315"/>
      <line x1="0" y1="420" x2="1200" y2="420"/>
      <line x1="0" y1="525" x2="1200" y2="525"/>
    </g>
    <g>
      <line x1="150" y1="0" x2="150" y2="630"/>
      <line x1="300" y1="0" x2="300" y2="630"/>
      <line x1="450" y1="0" x2="450" y2="630"/>
      <line x1="600" y1="0" x2="600" y2="630"/>
      <line x1="750" y1="0" x2="750" y2="630"/>
      <line x1="900" y1="0" x2="900" y2="630"/>
      <line x1="1050" y1="0" x2="1050" y2="630"/>
    </g>
  </g>
  <text x="90" y="300" fill="#f5f6f8" font-family="Inter, Arial, sans-serif" font-size="92" font-weight="700" letter-spacing="-3">Raphos</text>
  <text x="92" y="372" fill="#9aa3b2" font-family="Inter, Arial, sans-serif" font-size="38" font-weight="500">Engineering · Machine Learning · Data Science</text>
  <text x="92" y="430" fill="#5b8def" font-family="SFMono-Regular, Consolas, monospace" font-size="26" letter-spacing="2">computational tools for hard problems</text>
  <g stroke="#5b8def" stroke-width="3" fill="none" stroke-linecap="round">
    <path d="M860 470 q60 -120 150 -60 q90 60 150 -40"/>
    <path d="M860 520 q60 -120 150 -60 q90 60 150 -40"/>
  </g>
  <g fill="#5b8def">
    <circle cx="860" cy="470" r="7"/><circle cx="1010" cy="410" r="7"/><circle cx="1160" cy="430" r="7"/>
  </g>
</svg>
